<svg width="117" height="113" viewBox="0 0 117 113" fill="none" xmlns="http://www.w3.org/2000/svg">
<path fill-rule="evenodd" clip-rule="evenodd" d="M58.6897 21V57.1477C57.6255 55.6282 53.2974 55.3994 50.2629 57.0719C46.6664 59.0541 45.0261 62.7711 46.5951 65.3775C48.1641 67.9839 52.35 68.4965 55.9465 66.5142C58.1055 65.3243 59.5445 63.5049 60.0235 61.6794C60.2429 60.676 60.1149 60.1555 60.0993 59.4514V33.9131C75.8783 37.9102 68.5961 51.7665 67.1767 56.661C80.1397 38.9557 60.2761 31.7339 60.0993 21H58.6897Z" fill="black"/>
<rect x="10" y="43.33" width="97" height="2" fill="black"/>
<rect x="10" y="32" width="97" height="2" fill="black"/>
<rect x="10" y="55" width="97" height="2" fill="black"/>
<rect x="10" y="67" width="97" height="2" fill="black"/>
<rect x="10" y="78.3" width="97" height="2" fill="black"/>
</svg>
