<svg width="117" height="113" viewBox="0 0 117 113" fill="none" xmlns="http://www.w3.org/2000/svg">
<path fill-rule="evenodd" clip-rule="evenodd" d="M52.3103 26.5741C52.3103 26.5741 57.7026 28.3224 60.7371 26.6499C64.3336 24.6677 65.9739 20.9507 64.4049 18.3443C62.8359 15.738 58.65 15.2253 55.0535 17.2076C52.8945 18.3975 51.4555 20.2169 50.9765 22.0424C50.7571 23.0458 50.8851 23.5663 50.9007 24.2704C51.4344 25.9999 52.3103 26.5741 52.3103 26.5741Z" fill="black"/>
<path fill-rule="evenodd" clip-rule="evenodd" d="M52.31 22.9999L52.31 51.5373C68.0941 47.5403 60.8096 33.6846 59.3897 28.7903C72.3569 46.4949 52.4868 53.7164 52.31 64.4499H50.9L50.9 22.9999H52.31Z" fill="black"/>
<rect x="10" y="43.33" width="97" height="2" fill="black"/>
<rect x="10" y="32" width="97" height="2" fill="black"/>
<rect x="10" y="55" width="97" height="2" fill="black"/>
<rect x="10" y="67" width="97" height="2" fill="black"/>
<rect x="10" y="78.3" width="97" height="2" fill="black"/>
<rect x="43.5" y="21" width="28" height="2" fill="black"/>
</svg>
