<svg width="117" height="113" viewBox="0 0 117 113" fill="none" xmlns="http://www.w3.org/2000/svg">
<path fill-rule="evenodd" clip-rule="evenodd" d="M58.6897 56V92.1477C57.6255 90.6282 53.2974 90.3994 50.2629 92.0719C46.6664 94.0541 45.0261 97.7711 46.5951 100.377C48.1641 102.984 52.35 103.496 55.9465 101.514C58.1055 100.324 59.5445 98.5049 60.0235 96.6794C60.2429 95.676 60.1149 95.1555 60.0993 94.4514V68.9131C75.8783 72.9102 68.5961 86.7665 67.1767 91.661C80.1397 73.9557 60.2761 66.7339 60.0993 56H58.6897Z" fill="black"/>
<rect x="10" y="43.33" width="97" height="2" fill="black"/>
<rect x="10" y="32" width="97" height="2" fill="black"/>
<rect x="10" y="55" width="97" height="2" fill="black"/>
<rect x="10" y="67" width="97" height="2" fill="black"/>
<rect x="39" y="90" width="28" height="2" fill="black"/>
<rect x="10" y="78.3" width="97" height="2" fill="black"/>
</svg>
