<svg width="117" height="113" viewBox="0 0 117 113" fill="none" xmlns="http://www.w3.org/2000/svg">
<path fill-rule="evenodd" clip-rule="evenodd" d="M58.6897 15V51.1477C57.6255 49.6282 53.2974 49.3994 50.2629 51.0719C46.6664 53.0541 45.0261 56.7711 46.5951 59.3775C48.1641 61.9839 52.35 62.4965 55.9465 60.5142C58.1055 59.3243 59.5445 57.5049 60.0235 55.6794C60.2429 54.676 60.1149 54.1555 60.0993 53.4514V27.9131C75.8783 31.9102 68.5961 45.7665 67.1767 50.661C80.1397 32.9557 60.2761 25.7339 60.0993 15H58.6897Z" fill="black"/>
<rect x="10" y="43.33" width="97" height="2" fill="black"/>
<rect x="10" y="32" width="97" height="2" fill="black"/>
<rect x="10" y="55" width="97" height="2" fill="black"/>
<rect x="10" y="67" width="97" height="2" fill="black"/>
<rect x="10" y="78.3" width="97" height="2" fill="black"/>
</svg>
