<svg width="117" height="113" viewBox="0 0 117 113" fill="none" xmlns="http://www.w3.org/2000/svg">
<path fill-rule="evenodd" clip-rule="evenodd" d="M52.3103 21.1242C52.3103 21.1242 57.7026 22.8725 60.7371 21.2C64.3336 19.2177 65.9739 15.5007 64.4049 12.8944C62.8359 10.288 58.65 9.77541 55.0535 11.7577C52.8945 12.9476 51.4555 14.767 50.9765 16.5925C50.7571 17.5958 50.8851 18.1164 50.9007 18.8205C51.4344 20.55 52.3103 21.1242 52.3103 21.1242Z" fill="black"/>
<path fill-rule="evenodd" clip-rule="evenodd" d="M52.31 17.55L52.31 46.0873C68.0941 42.0904 60.8096 28.2346 59.3897 23.3403C72.3569 41.045 52.4868 48.2665 52.31 59H50.9L50.9 17.55H52.31Z" fill="black"/>
<rect x="10" y="43.33" width="97" height="2" fill="black"/>
<rect x="10" y="32" width="97" height="2" fill="black"/>
<rect x="10" y="55" width="97" height="2" fill="black"/>
<rect x="10" y="67" width="97" height="2" fill="black"/>
<rect x="10" y="78.3" width="97" height="2" fill="black"/>
<rect x="43.5" y="21" width="28" height="2" fill="black"/>
</svg>
