<svg width="117" height="113" viewBox="0 0 117 113" fill="none" xmlns="http://www.w3.org/2000/svg">
<path fill-rule="evenodd" clip-rule="evenodd" d="M58.6897 50V86.1477C57.6255 84.6282 53.2974 84.3994 50.2629 86.0719C46.6664 88.0541 45.0261 91.7711 46.5951 94.3775C48.1641 96.9839 52.35 97.4965 55.9465 95.5142C58.1055 94.3243 59.5445 92.5049 60.0235 90.6794C60.2429 89.676 60.1149 89.1555 60.0993 88.4514V62.9131C75.8783 66.9102 68.5961 80.7665 67.1767 85.661C80.1397 67.9557 60.2761 60.7339 60.0993 50H58.6897Z" fill="black"/>
<rect x="10" y="43.33" width="97" height="2" fill="black"/>
<rect x="10" y="32" width="97" height="2" fill="black"/>
<rect x="10" y="55" width="97" height="2" fill="black"/>
<rect x="10" y="67" width="97" height="2" fill="black"/>
<rect x="39" y="90" width="28" height="2" fill="black"/>
<rect x="10" y="78.3" width="97" height="2" fill="black"/>
</svg>
