<svg width="117" height="113" viewBox="0 0 117 113" fill="none" xmlns="http://www.w3.org/2000/svg">
<path fill-rule="evenodd" clip-rule="evenodd" d="M52.3103 54.5742C52.3103 54.5742 57.7026 56.3225 60.7371 54.65C64.3336 52.6677 65.9739 48.9507 64.4049 46.3444C62.8359 43.738 58.65 43.2254 55.0535 45.2077C52.8945 46.3976 51.4555 48.217 50.9765 50.0425C50.7571 51.0459 50.8851 51.5664 50.9007 52.2705C51.4344 54 52.3103 54.5742 52.3103 54.5742Z" fill="black"/>
<path fill-rule="evenodd" clip-rule="evenodd" d="M52.31 51L52.31 79.5373C68.0941 75.5404 60.8096 61.6846 59.3897 56.7903C72.3569 74.495 52.4868 81.7165 52.31 92.45H50.9L50.9 51H52.31Z" fill="black"/>
<rect x="10" y="43.33" width="97" height="2" fill="black"/>
<rect x="10" y="32" width="97" height="2" fill="black"/>
<rect x="10" y="55" width="97" height="2" fill="black"/>
<rect x="10" y="67" width="97" height="2" fill="black"/>
<rect x="10" y="78.3" width="97" height="2" fill="black"/>
</svg>
