<svg width="117" height="113" viewBox="0 0 117 113" fill="none" xmlns="http://www.w3.org/2000/svg">
<path fill-rule="evenodd" clip-rule="evenodd" d="M52.3103 15.6242C52.3103 15.6242 57.7026 17.3725 60.7371 15.7C64.3336 13.7177 65.9739 10.0007 64.4049 7.39436C62.8359 4.788 58.65 4.27539 55.0535 6.25764C52.8945 7.44759 51.4555 9.26696 50.9765 11.0925C50.7571 12.0958 50.8851 12.6164 50.9007 13.3204C51.4344 15.05 52.3103 15.6242 52.3103 15.6242Z" fill="black"/>
<path fill-rule="evenodd" clip-rule="evenodd" d="M52.31 12.05L52.31 40.5873C68.0941 36.5904 60.8096 22.7346 59.3897 17.8403C72.3569 35.545 52.4868 42.7664 52.31 53.5H50.9L50.9 12.05H52.31Z" fill="black"/>
<rect x="10" y="43.33" width="97" height="2" fill="black"/>
<rect x="10" y="32" width="97" height="2" fill="black"/>
<rect x="10" y="55" width="97" height="2" fill="black"/>
<rect x="10" y="67" width="97" height="2" fill="black"/>
<rect x="10" y="78.3" width="97" height="2" fill="black"/>
<rect x="43.5" y="21" width="28" height="2" fill="black"/>
<rect x="43.5" y="10" width="28" height="2" fill="black"/>
</svg>
