<svg width="117" height="113" viewBox="0 0 117 113" fill="none" xmlns="http://www.w3.org/2000/svg">
<path fill-rule="evenodd" clip-rule="evenodd" d="M58.6897 44V80.1477C57.6255 78.6282 53.2974 78.3994 50.2629 80.0719C46.6664 82.0541 45.0261 85.7711 46.5951 88.3775C48.1641 90.9839 52.35 91.4965 55.9465 89.5142C58.1055 88.3243 59.5445 86.5049 60.0235 84.6794C60.2429 83.676 60.1149 83.1555 60.0993 82.4514V56.9131C75.8783 60.9102 68.5961 74.7665 67.1767 79.661C80.1397 61.9557 60.2761 54.7339 60.0993 44H58.6897Z" fill="black"/>
<rect x="10" y="43.33" width="97" height="2" fill="black"/>
<rect x="10" y="32" width="97" height="2" fill="black"/>
<rect x="10" y="55" width="97" height="2" fill="black"/>
<rect x="10" y="67" width="97" height="2" fill="black"/>
<rect x="10" y="78.3" width="97" height="2" fill="black"/>
</svg>
