<svg width="117" height="113" viewBox="0 0 117 113" fill="none" xmlns="http://www.w3.org/2000/svg">
<path fill-rule="evenodd" clip-rule="evenodd" d="M52.3103 48.5742C52.3103 48.5742 57.7026 50.3225 60.7371 48.65C64.3336 46.6677 65.9739 42.9507 64.4049 40.3444C62.8359 37.738 58.65 37.2254 55.0535 39.2077C52.8945 40.3976 51.4555 42.217 50.9765 44.0425C50.7571 45.0459 50.8851 45.5664 50.9007 46.2705C51.4344 48 52.3103 48.5742 52.3103 48.5742Z" fill="black"/>
<path fill-rule="evenodd" clip-rule="evenodd" d="M52.31 45L52.31 73.5373C68.0941 69.5404 60.8096 55.6846 59.3897 50.7903C72.3569 68.495 52.4868 75.7165 52.31 86.45H50.9L50.9 45H52.31Z" fill="black"/>
<rect x="10" y="43.33" width="97" height="2" fill="black"/>
<rect x="10" y="32" width="97" height="2" fill="black"/>
<rect x="10" y="55" width="97" height="2" fill="black"/>
<rect x="10" y="67" width="97" height="2" fill="black"/>
<rect x="10" y="78.3" width="97" height="2" fill="black"/>
</svg>
