<svg width="117" height="113" viewBox="0 0 117 113" fill="none" xmlns="http://www.w3.org/2000/svg">
<path fill-rule="evenodd" clip-rule="evenodd" d="M58.6897 38.5V74.6477C57.6255 73.1282 53.2974 72.8994 50.2629 74.5719C46.6664 76.5541 45.0261 80.2711 46.5951 82.8775C48.1641 85.4839 52.35 85.9965 55.9465 84.0142C58.1055 82.8243 59.5445 81.0049 60.0235 79.1794C60.2429 78.176 60.1149 77.6555 60.0993 76.9514V51.4131C75.8783 55.4102 68.5961 69.2665 67.1767 74.161C80.1397 56.4557 60.2761 49.2339 60.0993 38.5H58.6897Z" fill="black"/>
<rect x="10" y="43.33" width="97" height="2" fill="black"/>
<rect x="10" y="32" width="97" height="2" fill="black"/>
<rect x="10" y="55" width="97" height="2" fill="black"/>
<rect x="10" y="67" width="97" height="2" fill="black"/>
<rect x="10" y="78.3" width="97" height="2" fill="black"/>
</svg>
