<svg width="117" height="113" viewBox="0 0 117 113" fill="none" xmlns="http://www.w3.org/2000/svg">
<path fill-rule="evenodd" clip-rule="evenodd" d="M52.3103 43.1242C52.3103 43.1242 57.7026 44.8725 60.7371 43.2C64.3336 41.2177 65.9739 37.5007 64.4049 34.8944C62.8359 32.288 58.65 31.7754 55.0535 33.7577C52.8945 34.9476 51.4555 36.767 50.9765 38.5925C50.7571 39.5959 50.8851 40.1164 50.9007 40.8205C51.4344 42.55 52.3103 43.1242 52.3103 43.1242Z" fill="black"/>
<path fill-rule="evenodd" clip-rule="evenodd" d="M52.31 39.55L52.31 68.0873C68.0941 64.0904 60.8096 50.2346 59.3897 45.3403C72.3569 63.045 52.4868 70.2665 52.31 81H50.9L50.9 39.55H52.31Z" fill="black"/>
<rect x="10" y="43.33" width="97" height="2" fill="black"/>
<rect x="10" y="32" width="97" height="2" fill="black"/>
<rect x="10" y="55" width="97" height="2" fill="black"/>
<rect x="10" y="67" width="97" height="2" fill="black"/>
<rect x="10" y="78.3" width="97" height="2" fill="black"/>
</svg>
