<svg width="117" height="113" viewBox="0 0 117 113" fill="none" xmlns="http://www.w3.org/2000/svg">
<path fill-rule="evenodd" clip-rule="evenodd" d="M52.3103 37.5742C52.3103 37.5742 57.7026 39.3225 60.7371 37.65C64.3336 35.6677 65.9739 31.9507 64.4049 29.3444C62.8359 26.738 58.65 26.2254 55.0535 28.2077C52.8945 29.3976 51.4555 31.217 50.9765 33.0425C50.7571 34.0459 50.8851 34.5664 50.9007 35.2705C51.4344 37 52.3103 37.5742 52.3103 37.5742Z" fill="black"/>
<path fill-rule="evenodd" clip-rule="evenodd" d="M52.31 34L52.31 62.5373C68.0941 58.5404 60.8096 44.6846 59.3897 39.7903C72.3569 57.495 52.4868 64.7165 52.31 75.45H50.9L50.9 34H52.31Z" fill="black"/>
<rect x="10" y="43.33" width="97" height="2" fill="black"/>
<rect x="10" y="32" width="97" height="2" fill="black"/>
<rect x="10" y="55" width="97" height="2" fill="black"/>
<rect x="10" y="67" width="97" height="2" fill="black"/>
<rect x="10" y="78.3" width="97" height="2" fill="black"/>
</svg>
