<svg width="117" height="113" viewBox="0 0 117 113" fill="none" xmlns="http://www.w3.org/2000/svg">
<path fill-rule="evenodd" clip-rule="evenodd" d="M58.6897 27.5V63.6477C57.6255 62.1282 53.2974 61.8994 50.2629 63.5719C46.6664 65.5541 45.0261 69.2711 46.5951 71.8775C48.1641 74.4839 52.35 74.9965 55.9465 73.0142C58.1055 71.8243 59.5445 70.0049 60.0235 68.1794C60.2429 67.176 60.1149 66.6555 60.0993 65.9514V40.4131C75.8783 44.4102 68.5961 58.2665 67.1767 63.161C80.1397 45.4557 60.2761 38.2339 60.0993 27.5H58.6897Z" fill="black"/>
<rect x="10" y="43.33" width="97" height="2" fill="black"/>
<rect x="10" y="32" width="97" height="2" fill="black"/>
<rect x="10" y="55" width="97" height="2" fill="black"/>
<rect x="10" y="67" width="97" height="2" fill="black"/>
<rect x="10" y="78.3" width="97" height="2" fill="black"/>
</svg>
