<svg width="117" height="113" viewBox="0 0 117 113" fill="none" xmlns="http://www.w3.org/2000/svg">
<path fill-rule="evenodd" clip-rule="evenodd" d="M52.3103 32.1242C52.3103 32.1242 57.7026 33.8725 60.7371 32.2C64.3336 30.2177 65.9739 26.5007 64.4049 23.8944C62.8359 21.288 58.65 20.7754 55.0535 22.7577C52.8945 23.9476 51.4555 25.767 50.9765 27.5925C50.7571 28.5958 50.8851 29.1164 50.9007 29.8205C51.4344 31.55 52.3103 32.1242 52.3103 32.1242Z" fill="black"/>
<path fill-rule="evenodd" clip-rule="evenodd" d="M52.31 28.55L52.31 57.0873C68.0941 53.0904 60.8096 39.2346 59.3897 34.3403C72.3569 52.045 52.4868 59.2665 52.31 70H50.9L50.9 28.55H52.31Z" fill="black"/>
<rect x="10" y="43.33" width="97" height="2" fill="black"/>
<rect x="10" y="32" width="97" height="2" fill="black"/>
<rect x="10" y="55" width="97" height="2" fill="black"/>
<rect x="10" y="67" width="97" height="2" fill="black"/>
<rect x="10" y="78.3" width="97" height="2" fill="black"/>
</svg>
