<svg width="200" height="134" viewBox="0 0 611 410" fill="none" xmlns="http://www.w3.org/2000/svg">
<path d="M148.164 404.225C144.352 404.225 140.922 402.878 137.872 400.183C135.204 397.488 133.87 394.024 133.87 389.789V102.789L51.5387 166.887C48.1083 169.582 44.4872 170.545 40.6756 169.775C37.2451 169.005 34.1958 166.887 31.5276 163.423L2.9404 125.887C0.653423 122.423 -0.299485 118.765 0.0816779 114.915C0.844004 111.066 2.9404 107.986 6.37087 105.676L136.729 4.04227C139.016 2.50236 141.112 1.53992 143.018 1.15495C145.305 0.384983 147.782 0 150.451 0H211.056C214.867 0 218.107 1.34742 220.775 4.04227C223.443 6.73709 224.777 10.2019 224.777 14.4366V389.789C224.777 394.024 223.443 397.488 220.775 400.183C218.107 402.878 214.867 404.225 211.056 404.225H148.164Z" fill="black" fill-opacity="0.87"/>
<path d="M449.196 410C415.654 410 386.495 403.84 361.719 391.521C337.325 379.202 318.267 362.263 304.545 340.704C291.204 318.761 284.534 294.122 284.534 266.789C284.534 255.239 286.249 243.69 289.679 232.141C293.11 220.592 297.303 209.812 302.258 199.803C307.213 189.408 312.168 180.169 317.123 172.085C322.459 164 326.843 157.455 330.273 152.451L433.187 11.5493C435.093 9.62442 437.571 7.31455 440.62 4.61973C443.669 1.53991 447.862 0 453.198 0H517.234C520.664 0 523.523 1.34742 525.81 4.04227C528.097 6.35212 529.241 9.23944 529.241 12.7042C529.241 14.2441 529.05 15.7841 528.669 17.324C528.288 18.4789 527.716 19.4413 526.954 20.2113L448.053 129.352C451.102 128.582 454.533 128.005 458.344 127.62C462.537 127.235 466.158 127.042 469.207 127.042C487.503 127.812 505.037 131.662 521.808 138.592C538.96 145.521 554.207 155.146 567.547 167.465C580.888 179.399 591.37 193.643 598.993 210.197C606.998 226.751 611 245.23 611 265.634C611 291.427 604.33 315.296 590.989 337.239C578.029 359.183 559.352 376.892 534.958 390.366C510.945 403.455 482.357 410 449.196 410ZM448.053 335.507C460.631 335.507 472.257 333.005 482.929 328C493.602 322.61 502.178 314.718 508.658 304.324C515.137 293.93 518.377 281.418 518.377 266.789C518.377 251.775 515.137 239.263 508.658 229.254C502.178 218.859 493.602 211.16 482.929 206.155C472.257 200.765 460.631 198.07 448.053 198.07C435.474 198.07 423.849 200.765 413.176 206.155C402.504 211.16 393.928 218.859 387.448 229.254C380.968 239.263 377.728 251.775 377.728 266.789C377.728 281.418 380.968 293.93 387.448 304.324C394.309 314.718 402.885 322.61 413.176 328C423.849 333.005 435.474 335.507 448.053 335.507Z" fill="black" fill-opacity="0.87"/>
</svg>
