<svg width="1024" height="1024" viewBox="0 0 1024 1024" fill="none" xmlns="http://www.w3.org/2000/svg">
<rect width="1024" height="1024" fill="#FF91AF"/>
<path d="M354.164 711.225C350.352 711.225 346.922 709.878 343.872 707.183C341.204 704.488 339.87 701.023 339.87 696.789V409.789L257.539 473.887C254.108 476.582 250.487 477.545 246.676 476.775C243.245 476.005 240.196 473.887 237.528 470.423L208.94 432.887C206.653 429.423 205.701 425.765 206.082 421.915C206.844 418.066 208.94 414.986 212.371 412.676L342.729 311.042C345.016 309.502 347.112 308.54 349.018 308.155C351.305 307.385 353.782 307 356.451 307H417.056C420.867 307 424.107 308.347 426.775 311.042C429.443 313.737 430.777 317.202 430.777 321.437V696.789C430.777 701.023 429.443 704.488 426.775 707.183C424.107 709.878 420.867 711.225 417.056 711.225H354.164Z" fill="black" fill-opacity="0.87"/>
<path d="M655.196 717C621.654 717 592.495 710.84 567.719 698.521C543.325 686.202 524.267 669.263 510.545 647.704C497.204 625.761 490.534 601.122 490.534 573.789C490.534 562.239 492.249 550.69 495.679 539.141C499.11 527.592 503.303 516.812 508.258 506.803C513.213 496.408 518.168 487.169 523.123 479.085C528.459 471 532.843 464.455 536.273 459.451L639.187 318.549C641.093 316.624 643.571 314.315 646.62 311.62C649.669 308.54 653.862 307 659.198 307H723.234C726.664 307 729.523 308.347 731.81 311.042C734.097 313.352 735.241 316.239 735.241 319.704C735.241 321.244 735.05 322.784 734.669 324.324C734.288 325.479 733.716 326.441 732.954 327.211L654.053 436.352C657.102 435.582 660.533 435.005 664.344 434.62C668.537 434.235 672.158 434.042 675.207 434.042C693.503 434.812 711.037 438.662 727.808 445.592C744.96 452.521 760.207 462.146 773.547 474.465C786.888 486.399 797.37 500.643 804.993 517.197C812.998 533.751 817 552.23 817 572.634C817 598.427 810.33 622.296 796.989 644.239C784.029 666.183 765.352 683.892 740.958 697.366C716.945 710.455 688.357 717 655.196 717ZM654.053 642.507C666.631 642.507 678.257 640.005 688.929 635C699.602 629.61 708.178 621.718 714.658 611.324C721.137 600.93 724.377 588.418 724.377 573.789C724.377 558.775 721.137 546.263 714.658 536.254C708.178 525.859 699.602 518.16 688.929 513.155C678.257 507.765 666.631 505.07 654.053 505.07C641.474 505.07 629.849 507.765 619.176 513.155C608.504 518.16 599.928 525.859 593.448 536.254C586.968 546.263 583.728 558.775 583.728 573.789C583.728 588.418 586.968 600.93 593.448 611.324C600.309 621.718 608.885 629.61 619.176 635C629.849 640.005 641.474 642.507 654.053 642.507Z" fill="black" fill-opacity="0.87"/>
</svg>
