<svg width="417" height="255" viewBox="0 0 417 255" fill="none" xmlns="http://www.w3.org/2000/svg">
<path d="M20 250H118C118 250 107.639 222.449 101 208C88.4694 210.333 81.246 211 68.5 211C55.754 211 48.5306 210.333 36 208C29.7516 222.449 20 250 20 250Z" fill="white"/>
<path d="M118 250C125.732 250 132 243.732 132 236L115 194C115 201.732 108.732 208 101 208C107.639 222.449 118 250 118 250Z" fill="#F2F2F2"/>
<path d="M132 236V160.799C132 157.086 130.604 153.433 128.736 150.225C125.204 144.16 120.493 135.146 112.415 132.657C115.406 133.956 115 137.239 115 143V194L132 236Z" fill="#DEDBDB"/>
<path d="M6 236C6 243.732 12.268 250 20 250C20 250 29.7516 222.449 36 208C28.268 208 22 201.732 22 194L6 236Z" fill="#F2F2F2"/>
<path d="M10.7581 148.628C8.40133 153.014 6 158.062 6 163.041V236L22 194V143C22 136.475 22.903 133.129 27.8319 132.243C18.1803 133.786 14.1405 142.333 10.7581 148.628Z" fill="#DEDBDB"/>
<path fill-rule="evenodd" clip-rule="evenodd" d="M31 132C29.8808 132 28.8265 132.085 27.8319 132.243C28.7436 132.08 29.7931 132 31 132ZM108 132C109.971 132 111.392 132.212 112.415 132.657C111.044 132.234 109.576 132 108 132Z" fill="white"/>
<path d="M108 132H31C29.8808 132 28.8265 132.085 27.8319 132.243C22.903 133.129 22 136.475 22 143V194C22 201.732 28.268 208 36 208C48.5306 210.333 55.754 211 68.5 211C81.246 211 88.4694 210.333 101 208C108.732 208 115 201.732 115 194V143C115 137.239 115.406 133.956 112.415 132.657C111.044 132.234 109.576 132 108 132Z" fill="white"/>
<path d="M36 208L36.3661 206.034L36.1846 206H36V208ZM101 208V206H100.815L100.634 206.034L101 208ZM68.5 211L68.5 209L68.5 211ZM130 160.799V236H134V160.799H130ZM118 248H20V252H118V248ZM8 236V163.041H4V236H8ZM20 248C13.3726 248 8 242.627 8 236H4C4 244.837 11.1634 252 20 252V248ZM130 236C130 242.627 124.627 248 118 248V252C126.837 252 134 244.837 134 236H130ZM31 134H108V130H31V134ZM113 143V194H117V143H113ZM24 194V143H20V194H24ZM36 206C29.3726 206 24 200.627 24 194H20C20 202.837 27.1634 210 36 210V206ZM113 194C113 200.627 107.627 206 101 206V210C109.837 210 117 202.837 117 194H113ZM20.131 193.288L4.13102 235.288L7.86898 236.712L23.869 194.712L20.131 193.288ZM34.1643 207.206C31.0168 214.485 27.0006 225.029 23.7813 233.724C22.1693 238.078 20.753 241.979 19.7397 244.792C19.233 246.198 18.827 247.333 18.5475 248.116C18.4078 248.508 18.2997 248.811 18.2265 249.018C18.1898 249.121 18.1619 249.199 18.1432 249.252C18.1338 249.279 18.1267 249.299 18.1219 249.312C18.1195 249.319 18.1177 249.324 18.1165 249.327C18.1159 249.329 18.1154 249.33 18.1151 249.331C18.115 249.332 18.1148 249.332 18.1148 249.332C18.1147 249.333 18.1146 249.333 20 250C21.8854 250.667 21.8854 250.667 21.8855 250.667C21.8855 250.667 21.8856 250.667 21.8858 250.666C21.8861 250.665 21.8865 250.664 21.8871 250.663C21.8882 250.659 21.89 250.654 21.8923 250.648C21.8969 250.635 21.9039 250.615 21.9132 250.589C21.9317 250.537 21.9593 250.459 21.9956 250.357C22.0683 250.152 22.1758 249.85 22.3149 249.46C22.5931 248.68 22.9978 247.55 23.5029 246.147C24.5133 243.343 25.9255 239.453 27.5324 235.113C30.751 226.42 34.7348 215.965 37.8357 208.794L34.1643 207.206ZM99.1827 208.835C102.477 216.004 106.709 226.458 110.128 235.151C111.836 239.491 113.336 243.38 114.41 246.184C114.946 247.587 115.376 248.717 115.672 249.497C115.82 249.887 115.934 250.189 116.011 250.393C116.05 250.496 116.079 250.574 116.099 250.626C116.108 250.652 116.116 250.672 116.121 250.685C116.123 250.691 116.125 250.696 116.126 250.699C116.127 250.701 116.127 250.702 116.128 250.703C116.128 250.703 116.128 250.704 116.128 250.704C116.128 250.704 116.128 250.704 118 250C119.872 249.296 119.872 249.296 119.872 249.296C119.872 249.295 119.872 249.295 119.871 249.295C119.871 249.294 119.871 249.292 119.87 249.291C119.869 249.287 119.867 249.282 119.864 249.275C119.859 249.262 119.852 249.242 119.842 249.215C119.822 249.162 119.792 249.084 119.753 248.981C119.675 248.775 119.56 248.471 119.412 248.079C119.115 247.296 118.684 246.161 118.145 244.755C117.069 241.942 115.564 238.04 113.851 233.686C110.43 224.992 106.162 214.445 102.817 207.165L99.1827 208.835ZM113.146 194.75L130.146 236.75L133.854 235.25L116.854 193.25L113.146 194.75ZM100.634 206.034C88.224 208.345 81.1232 209 68.5 209L68.5 213C81.3688 213 88.7148 212.322 101.366 209.966L100.634 206.034ZM68.5 209C55.8768 209 48.776 208.345 36.3661 206.034L35.6339 209.966C48.2852 212.322 55.6312 213 68.5 213L68.5 209ZM130.464 149.218C128.738 146.254 126.589 142.323 123.849 138.859C121.1 135.385 117.592 132.159 113.004 130.746L111.826 134.568C115.316 135.643 118.202 138.169 120.712 141.341C123.229 144.522 125.202 148.131 127.008 151.231L130.464 149.218ZM111.618 134.491C112.043 134.676 112.261 134.884 112.411 135.111C112.582 135.371 112.744 135.78 112.854 136.471C113.093 137.966 113 139.947 113 143H117C117 140.292 117.11 137.751 116.804 135.84C116.642 134.828 116.345 133.812 115.751 132.91C115.136 131.977 114.283 131.288 113.212 130.822L111.618 134.491ZM108 134C109.873 134 110.969 134.209 111.618 134.491L113.212 130.822C111.814 130.215 110.068 130 108 130V134ZM108 134C109.374 134 110.644 134.204 111.826 134.568L113.004 130.746C111.444 130.265 109.778 130 108 130V134ZM24 143C24 139.727 24.2464 137.68 24.8724 136.369C25.3819 135.302 26.2179 134.565 28.1856 134.212L27.4782 130.275C24.5171 130.807 22.4371 132.186 21.2629 134.645C20.2051 136.86 20 139.748 20 143H24ZM27.5164 130.269C16.7062 131.996 12.2371 141.65 8.99626 147.682L12.5199 149.575C16.044 143.016 19.6544 135.575 28.1475 134.218L27.5164 130.269ZM31 130C29.7101 130 28.5371 130.085 27.4782 130.275L28.1856 134.212C28.9501 134.075 29.876 134 31 134V130ZM31 130C29.7797 130 28.6198 130.092 27.5164 130.269L28.1475 134.218C29.0333 134.077 29.9818 134 31 134L31 130ZM8 163.041C8 158.622 10.1527 153.98 12.5199 149.575L8.99626 147.682C6.64991 152.049 4 157.502 4 163.041H8ZM134 160.799C134 156.601 132.43 152.594 130.464 149.218L127.008 151.231C128.779 154.273 130 157.571 130 160.799H134Z" fill="black"/>
<path d="M42 158L62 169.547V146.453L42 158ZM92 156H60V160H92V156Z" fill="black"/>
<path d="M69.5581 184.457L64.6011 200H60.0132L67.1191 180.805H70.0195L69.5581 184.457ZM73.6714 200L68.7012 184.457L68.187 180.805H71.127L78.2593 200H73.6714ZM73.4604 192.854V196.177H63.4541V192.854H73.4604Z" fill="black"/>
<path d="M162 143C162 136.475 162.903 133.129 167.832 132.243C168.744 132.08 169.793 132 171 132H248C249.971 132 251.392 132.212 252.415 132.657C255.406 133.956 255 137.239 255 143V194C255 201.732 248.732 208 241 208C228.469 210.333 221.246 211 208.5 211C195.754 211 188.531 210.333 176 208C168.268 208 162 201.732 162 194V143Z" fill="white"/>
<path d="M150.758 148.628C148.401 153.014 146 158.062 146 163.041V236L162 194V143C162 136.475 162.903 133.129 167.832 132.243C158.18 133.786 154.141 142.333 150.758 148.628Z" fill="#DEDBDB"/>
<path d="M146 236C146 243.732 152.268 250 160 250C160 250 169.752 222.449 176 208C168.268 208 162 201.732 162 194L146 236Z" fill="#F2F2F2"/>
<path d="M160 250H258C258 250 247.639 222.449 241 208C228.469 210.333 221.246 211 208.5 211C195.754 211 188.531 210.333 176 208C169.752 222.449 160 250 160 250Z" fill="white"/>
<path d="M258 250C265.732 250 272 243.732 272 236L255 194C255 201.732 248.732 208 241 208C247.639 222.449 258 250 258 250Z" fill="#F2F2F2"/>
<path d="M272 236V160.799C272 157.086 270.604 153.433 268.736 150.225C265.204 144.16 260.493 135.145 252.415 132.657C255.406 133.956 255 137.239 255 143V194L272 236Z" fill="#DEDBDB"/>
<path d="M176 208L176.366 206.034L176.185 206H176V208ZM241 208V206H240.815L240.634 206.034L241 208ZM208.5 211L208.5 209L208.5 211ZM270 160.799V236H274V160.799H270ZM258 248H160V252H258V248ZM148 236V163.041H144V236H148ZM160 248C153.373 248 148 242.627 148 236H144C144 244.837 151.163 252 160 252V248ZM270 236C270 242.627 264.627 248 258 248V252C266.837 252 274 244.837 274 236H270ZM171 134H248V130H171V134ZM253 143V194H257V143H253ZM164 194V143H160V194H164ZM176 206C169.373 206 164 200.627 164 194H160C160 202.837 167.163 210 176 210V206ZM253 194C253 200.627 247.627 206 241 206V210C249.837 210 257 202.837 257 194H253ZM160.131 193.288L144.131 235.288L147.869 236.712L163.869 194.712L160.131 193.288ZM174.164 207.206C171.017 214.485 167.001 225.029 163.781 233.724C162.169 238.078 160.753 241.979 159.74 244.792C159.233 246.198 158.827 247.333 158.548 248.116C158.408 248.508 158.3 248.811 158.226 249.018C158.19 249.121 158.162 249.199 158.143 249.252C158.134 249.279 158.127 249.299 158.122 249.312C158.12 249.319 158.118 249.324 158.116 249.327C158.116 249.329 158.115 249.33 158.115 249.331C158.115 249.332 158.115 249.332 158.115 249.332C158.115 249.333 158.115 249.333 160 250C161.885 250.667 161.885 250.667 161.885 250.667C161.886 250.667 161.886 250.667 161.886 250.666C161.886 250.665 161.886 250.664 161.887 250.663C161.888 250.659 161.89 250.654 161.892 250.648C161.897 250.635 161.904 250.615 161.913 250.589C161.932 250.537 161.959 250.459 161.996 250.357C162.068 250.152 162.176 249.85 162.315 249.46C162.593 248.68 162.998 247.55 163.503 246.147C164.513 243.343 165.925 239.453 167.532 235.113C170.751 226.42 174.735 215.965 177.836 208.794L174.164 207.206ZM239.183 208.835C242.477 216.004 246.709 226.458 250.128 235.151C251.836 239.491 253.336 243.38 254.41 246.184C254.946 247.587 255.376 248.717 255.672 249.497C255.82 249.887 255.934 250.189 256.011 250.393C256.05 250.496 256.079 250.574 256.099 250.626C256.108 250.652 256.116 250.671 256.121 250.685C256.123 250.691 256.125 250.696 256.126 250.699C256.127 250.701 256.127 250.702 256.128 250.703C256.128 250.703 256.128 250.704 256.128 250.704C256.128 250.704 256.128 250.704 258 250C259.872 249.296 259.872 249.296 259.872 249.296C259.872 249.295 259.872 249.295 259.871 249.295C259.871 249.294 259.871 249.292 259.87 249.291C259.869 249.287 259.867 249.282 259.864 249.275C259.859 249.262 259.852 249.242 259.842 249.215C259.822 249.162 259.792 249.084 259.753 248.981C259.675 248.775 259.56 248.471 259.412 248.079C259.115 247.296 258.684 246.161 258.145 244.755C257.069 241.942 255.564 238.04 253.851 233.686C250.43 224.991 246.162 214.445 242.817 207.165L239.183 208.835ZM253.146 194.75L270.146 236.75L273.854 235.25L256.854 193.25L253.146 194.75ZM240.634 206.034C228.224 208.345 221.123 209 208.5 209L208.5 213C221.369 213 228.715 212.322 241.366 209.966L240.634 206.034ZM208.5 209C195.877 209 188.776 208.345 176.366 206.034L175.634 209.966C188.285 212.322 195.631 213 208.5 213L208.5 209ZM164 143C164 139.727 164.246 137.679 164.872 136.369C165.382 135.302 166.218 134.565 168.186 134.212L167.478 130.275C164.517 130.807 162.437 132.186 161.263 134.645C160.205 136.86 160 139.748 160 143H164ZM167.516 130.268C156.706 131.996 152.237 141.65 148.996 147.682L152.52 149.575C156.044 143.016 159.654 135.575 168.147 134.218L167.516 130.268ZM171 130C169.71 130 168.537 130.085 167.478 130.275L168.186 134.212C168.95 134.075 169.876 134 171 134V130ZM171 130C169.78 130 168.62 130.092 167.516 130.268L168.147 134.218C169.033 134.077 169.982 134 171 134L171 130ZM270.464 149.218C268.738 146.254 266.589 142.323 263.849 138.859C261.1 135.385 257.592 132.159 253.004 130.745L251.826 134.568C255.316 135.643 258.202 138.169 260.712 141.341C263.229 144.522 265.202 148.131 267.008 151.231L270.464 149.218ZM251.618 134.491C252.043 134.676 252.261 134.884 252.411 135.111C252.582 135.371 252.744 135.78 252.854 136.471C253.093 137.966 253 139.947 253 143H257C257 140.292 257.11 137.751 256.804 135.84C256.642 134.828 256.345 133.812 255.751 132.91C255.136 131.977 254.283 131.288 253.212 130.822L251.618 134.491ZM248 134C249.873 134 250.969 134.209 251.618 134.491L253.212 130.822C251.814 130.215 250.068 130 248 130V134ZM248 134C249.374 134 250.644 134.204 251.826 134.568L253.004 130.745C251.444 130.265 249.778 130 248 130V134ZM148 163.041C148 158.622 150.153 153.98 152.52 149.575L148.996 147.682C146.65 152.048 144 157.502 144 163.041H148ZM274 160.799C274 156.601 272.43 152.594 270.464 149.218L267.008 151.231C268.779 154.273 270 157.571 270 160.799H274Z" fill="black"/>
<path d="M212.536 194.937C212.536 194.612 212.487 194.322 212.391 194.067C212.294 193.804 212.118 193.562 211.863 193.342C211.608 193.123 211.248 192.903 210.782 192.683C210.316 192.455 209.706 192.222 208.95 191.984C208.088 191.703 207.267 191.387 206.484 191.035C205.711 190.675 205.021 190.257 204.415 189.783C203.808 189.308 203.329 188.754 202.978 188.122C202.635 187.489 202.463 186.75 202.463 185.907C202.463 185.089 202.644 184.351 203.004 183.692C203.364 183.033 203.87 182.47 204.52 182.004C205.17 181.53 205.935 181.169 206.814 180.923C207.693 180.668 208.66 180.541 209.714 180.541C211.121 180.541 212.355 180.791 213.419 181.292C214.491 181.785 215.326 182.479 215.924 183.375C216.521 184.263 216.82 185.296 216.82 186.474H212.549C212.549 185.955 212.439 185.498 212.219 185.103C212.008 184.698 211.683 184.382 211.244 184.153C210.813 183.925 210.272 183.811 209.622 183.811C208.989 183.811 208.458 183.907 208.027 184.101C207.605 184.285 207.284 184.54 207.064 184.865C206.854 185.19 206.748 185.546 206.748 185.933C206.748 186.241 206.827 186.522 206.985 186.777C207.152 187.023 207.39 187.256 207.697 187.476C208.014 187.686 208.4 187.889 208.857 188.082C209.314 188.275 209.837 188.46 210.426 188.636C211.455 188.961 212.364 189.321 213.155 189.717C213.955 190.112 214.627 190.561 215.172 191.061C215.717 191.562 216.126 192.129 216.398 192.762C216.68 193.395 216.82 194.111 216.82 194.911C216.82 195.764 216.653 196.52 216.319 197.179C215.994 197.838 215.52 198.4 214.896 198.866C214.28 199.323 213.542 199.67 212.681 199.908C211.819 200.145 210.857 200.264 209.793 200.264C208.827 200.264 207.873 200.141 206.933 199.895C205.992 199.64 205.14 199.253 204.375 198.734C203.619 198.216 203.013 197.557 202.556 196.757C202.107 195.948 201.883 194.99 201.883 193.883H206.181C206.181 194.463 206.265 194.955 206.432 195.359C206.599 195.755 206.836 196.076 207.144 196.322C207.46 196.568 207.842 196.744 208.291 196.849C208.739 196.955 209.24 197.007 209.793 197.007C210.435 197.007 210.954 196.919 211.349 196.744C211.753 196.559 212.052 196.309 212.246 195.992C212.439 195.676 212.536 195.324 212.536 194.937Z" fill="black"/>
<path d="M209 175L220.547 155H197.453L209 175ZM207 138V157H211V138H207Z" fill="black"/>
<path d="M302 143C302 136.475 302.903 133.129 307.832 132.243C308.744 132.08 309.793 132 311 132H388C389.971 132 391.392 132.212 392.415 132.657C395.406 133.956 395 137.239 395 143V194C395 201.732 388.732 208 381 208C368.469 210.333 361.246 211 348.5 211C335.754 211 328.531 210.333 316 208C308.268 208 302 201.732 302 194V143Z" fill="white"/>
<path d="M290.758 148.628C288.401 153.014 286 158.062 286 163.041V236L302 194V143C302 136.475 302.903 133.129 307.832 132.243C298.18 133.786 294.141 142.333 290.758 148.628Z" fill="#DEDBDB"/>
<path d="M286 236C286 243.732 292.268 250 300 250C300 250 309.752 222.449 316 208C308.268 208 302 201.732 302 194L286 236Z" fill="#F2F2F2"/>
<path d="M300 250H398C398 250 387.639 222.449 381 208C368.469 210.333 361.246 211 348.5 211C335.754 211 328.531 210.333 316 208C309.752 222.449 300 250 300 250Z" fill="white"/>
<path d="M398 250C405.732 250 412 243.732 412 236L395 194C395 201.732 388.732 208 381 208C387.639 222.449 398 250 398 250Z" fill="#F2F2F2"/>
<path d="M412 236V160.799C412 157.086 410.604 153.433 408.736 150.225C405.204 144.16 400.493 135.145 392.415 132.657C395.406 133.956 395 137.239 395 143V194L412 236Z" fill="#DEDBDB"/>
<path d="M316 208L316.366 206.034L316.185 206H316V208ZM381 208V206H380.815L380.634 206.034L381 208ZM348.5 211L348.5 209L348.5 211ZM410 160.799V236H414V160.799H410ZM398 248H300V252H398V248ZM288 236V163.041H284V236H288ZM300 248C293.373 248 288 242.627 288 236H284C284 244.837 291.163 252 300 252V248ZM410 236C410 242.627 404.627 248 398 248V252C406.837 252 414 244.837 414 236H410ZM311 134H388V130H311V134ZM393 143V194H397V143H393ZM304 194V143H300V194H304ZM316 206C309.373 206 304 200.627 304 194H300C300 202.837 307.163 210 316 210V206ZM393 194C393 200.627 387.627 206 381 206V210C389.837 210 397 202.837 397 194H393ZM300.131 193.288L284.131 235.288L287.869 236.712L303.869 194.712L300.131 193.288ZM314.164 207.206C311.017 214.485 307.001 225.029 303.781 233.724C302.169 238.078 300.753 241.979 299.74 244.792C299.233 246.198 298.827 247.333 298.548 248.116C298.408 248.508 298.3 248.811 298.226 249.018C298.19 249.121 298.162 249.199 298.143 249.252C298.134 249.279 298.127 249.299 298.122 249.312C298.12 249.319 298.118 249.324 298.116 249.327C298.116 249.329 298.115 249.33 298.115 249.331C298.115 249.332 298.115 249.332 298.115 249.332C298.115 249.333 298.115 249.333 300 250C301.885 250.667 301.885 250.667 301.885 250.667C301.886 250.667 301.886 250.667 301.886 250.666C301.886 250.665 301.886 250.664 301.887 250.663C301.888 250.659 301.89 250.654 301.892 250.648C301.897 250.635 301.904 250.615 301.913 250.589C301.932 250.537 301.959 250.459 301.996 250.357C302.068 250.152 302.176 249.85 302.315 249.46C302.593 248.68 302.998 247.55 303.503 246.147C304.513 243.343 305.925 239.453 307.532 235.113C310.751 226.42 314.735 215.965 317.836 208.794L314.164 207.206ZM379.183 208.835C382.477 216.004 386.709 226.458 390.128 235.151C391.836 239.491 393.336 243.38 394.41 246.184C394.946 247.587 395.376 248.717 395.672 249.497C395.82 249.887 395.934 250.189 396.011 250.393C396.05 250.496 396.079 250.574 396.099 250.626C396.108 250.652 396.116 250.671 396.121 250.685C396.123 250.691 396.125 250.696 396.126 250.699C396.127 250.701 396.127 250.702 396.128 250.703C396.128 250.703 396.128 250.704 396.128 250.704C396.128 250.704 396.128 250.704 398 250C399.872 249.296 399.872 249.296 399.872 249.296C399.872 249.295 399.872 249.295 399.871 249.295C399.871 249.294 399.871 249.292 399.87 249.291C399.869 249.287 399.867 249.282 399.864 249.275C399.859 249.262 399.852 249.242 399.842 249.215C399.822 249.162 399.792 249.084 399.753 248.981C399.675 248.775 399.56 248.471 399.412 248.079C399.115 247.296 398.684 246.161 398.145 244.755C397.069 241.942 395.564 238.04 393.851 233.686C390.43 224.991 386.162 214.445 382.817 207.165L379.183 208.835ZM393.146 194.75L410.146 236.75L413.854 235.25L396.854 193.25L393.146 194.75ZM380.634 206.034C368.224 208.345 361.123 209 348.5 209L348.5 213C361.369 213 368.715 212.322 381.366 209.966L380.634 206.034ZM348.5 209C335.877 209 328.776 208.345 316.366 206.034L315.634 209.966C328.285 212.322 335.631 213 348.5 213L348.5 209ZM304 143C304 139.727 304.246 137.679 304.872 136.369C305.382 135.302 306.218 134.565 308.186 134.212L307.478 130.275C304.517 130.807 302.437 132.186 301.263 134.645C300.205 136.86 300 139.748 300 143H304ZM307.516 130.268C296.706 131.996 292.237 141.65 288.996 147.682L292.52 149.575C296.044 143.016 299.654 135.575 308.147 134.218L307.516 130.268ZM311 130C309.71 130 308.537 130.085 307.478 130.275L308.186 134.212C308.95 134.075 309.876 134 311 134V130ZM311 130C309.78 130 308.62 130.092 307.516 130.268L308.147 134.218C309.033 134.077 309.982 134 311 134L311 130ZM410.464 149.218C408.738 146.254 406.589 142.323 403.849 138.859C401.1 135.385 397.592 132.159 393.004 130.745L391.826 134.568C395.316 135.643 398.202 138.169 400.712 141.341C403.229 144.522 405.202 148.131 407.008 151.231L410.464 149.218ZM391.618 134.491C392.043 134.676 392.261 134.884 392.411 135.111C392.582 135.371 392.744 135.78 392.854 136.471C393.093 137.966 393 139.947 393 143H397C397 140.292 397.11 137.751 396.804 135.84C396.642 134.828 396.345 133.812 395.751 132.91C395.136 131.977 394.283 131.288 393.212 130.822L391.618 134.491ZM388 134C389.873 134 390.969 134.209 391.618 134.491L393.212 130.822C391.814 130.215 390.068 130 388 130V134ZM388 134C389.374 134 390.644 134.204 391.826 134.568L393.004 130.745C391.444 130.265 389.778 130 388 130V134ZM288 163.041C288 158.622 290.153 153.98 292.52 149.575L288.996 147.682C286.65 152.048 284 157.502 284 163.041H288ZM414 160.799C414 156.601 412.43 152.594 410.464 149.218L407.008 151.231C408.779 154.273 410 157.571 410 160.799H414Z" fill="black"/>
<path d="M374 158L354 146.453V169.547L374 158ZM324 160H356V156H324V160Z" fill="black"/>
<path d="M347.66 200H343.441L343.467 196.678H347.66C348.618 196.678 349.426 196.458 350.085 196.019C350.745 195.57 351.246 194.911 351.588 194.041C351.931 193.162 352.103 192.094 352.103 190.837V189.954C352.103 189.005 352.006 188.17 351.812 187.449C351.619 186.72 351.333 186.109 350.956 185.617C350.578 185.124 350.107 184.755 349.545 184.509C348.991 184.263 348.354 184.14 347.633 184.14H343.362V180.805H347.633C348.934 180.805 350.121 181.024 351.193 181.464C352.274 181.903 353.206 182.532 353.988 183.349C354.779 184.166 355.39 185.133 355.82 186.249C356.251 187.366 356.466 188.609 356.466 189.98V190.837C356.466 192.2 356.251 193.443 355.82 194.568C355.39 195.685 354.779 196.651 353.988 197.469C353.206 198.277 352.278 198.901 351.206 199.341C350.134 199.78 348.952 200 347.66 200ZM345.88 180.805V200H341.582V180.805H345.88Z" fill="black"/>
<path d="M144 109C144 116.732 150.268 123 158 123C158 123 167.752 95.4494 174 81C166.268 81 160 74.732 160 67L144 109Z" fill="#F2F2F2"/>
<path d="M148.758 21.6281C146.401 26.0144 144 31.0618 144 36.0411V109L160 67V16C160 9.47496 160.903 6.12903 165.832 5.24344C156.18 6.78553 152.141 15.3328 148.758 21.6281Z" fill="#DEDBDB"/>
<path d="M158 123H256C256 123 245.639 95.4494 239 81C226.469 83.3333 219.246 84 206.5 84C193.754 84 186.531 83.3333 174 81C167.752 95.4494 158 123 158 123Z" fill="white"/>
<path d="M256 123C263.732 123 270 116.732 270 109L253 67C253 74.732 246.732 81 239 81C245.639 95.4494 256 123 256 123Z" fill="#F2F2F2"/>
<path d="M270 109V33.799C270 30.086 268.604 26.4334 266.736 23.2248C263.204 17.1602 258.493 8.14547 250.415 5.65684C253.406 6.95613 253 10.2389 253 16V67L270 109Z" fill="#DEDBDB"/>
<path d="M246 5H169C167.881 5 166.827 5.08452 165.832 5.24344C160.903 6.12903 160 9.47496 160 16V67C160 74.732 166.268 81 174 81C186.531 83.3333 193.754 84 206.5 84C219.246 84 226.469 83.3333 239 81C246.732 81 253 74.732 253 67V16C253 10.2389 253.406 6.95613 250.415 5.65684C249.044 5.2344 247.576 5 246 5Z" fill="white"/>
<path d="M174 81L174.366 79.0338L174.185 79H174V81ZM239 81V79H238.815L238.634 79.0338L239 81ZM206.5 84L206.5 82L206.5 84ZM268 33.799V109H272V33.799H268ZM256 121H158V125H256V121ZM146 109V36.0411H142V109H146ZM158 121C151.373 121 146 115.627 146 109H142C142 117.837 149.163 125 158 125V121ZM268 109C268 115.627 262.627 121 256 121V125C264.837 125 272 117.837 272 109H268ZM169 7H246V3H169V7ZM251 16V67H255V16H251ZM162 67V16H158V67H162ZM174 79C167.373 79 162 73.6274 162 67H158C158 75.8365 165.163 83 174 83V79ZM251 67C251 73.6274 245.627 79 239 79V83C247.837 83 255 75.8365 255 67H251ZM158.131 66.288L142.131 108.288L145.869 109.712L161.869 67.712L158.131 66.288ZM172.164 80.2062C169.017 87.4848 165.001 98.0293 161.781 106.724C160.169 111.078 158.753 114.979 157.74 117.792C157.233 119.198 156.827 120.333 156.548 121.116C156.408 121.508 156.3 121.811 156.226 122.018C156.19 122.121 156.162 122.199 156.143 122.252C156.134 122.279 156.127 122.299 156.122 122.312C156.12 122.319 156.118 122.324 156.116 122.327C156.116 122.329 156.115 122.33 156.115 122.331C156.115 122.332 156.115 122.332 156.115 122.332C156.115 122.333 156.115 122.333 158 123C159.885 123.667 159.885 123.667 159.885 123.667C159.886 123.667 159.886 123.667 159.886 123.666C159.886 123.665 159.886 123.664 159.887 123.663C159.888 123.659 159.89 123.654 159.892 123.648C159.897 123.635 159.904 123.615 159.913 123.589C159.932 123.537 159.959 123.459 159.996 123.357C160.068 123.152 160.176 122.85 160.315 122.46C160.593 121.68 160.998 120.55 161.503 119.147C162.513 116.343 163.925 112.453 165.532 108.113C168.751 99.4201 172.735 88.9647 175.836 81.7939L172.164 80.2062ZM237.183 81.835C240.477 89.0041 244.709 99.458 248.128 108.151C249.836 112.491 251.336 116.38 252.41 119.184C252.946 120.587 253.376 121.717 253.672 122.497C253.82 122.887 253.934 123.189 254.011 123.393C254.05 123.496 254.079 123.574 254.099 123.626C254.108 123.652 254.116 123.671 254.121 123.685C254.123 123.691 254.125 123.696 254.126 123.699C254.127 123.701 254.127 123.702 254.128 123.703C254.128 123.703 254.128 123.704 254.128 123.704C254.128 123.704 254.128 123.704 256 123C257.872 122.296 257.872 122.296 257.872 122.296C257.872 122.295 257.872 122.295 257.871 122.295C257.871 122.294 257.871 122.292 257.87 122.291C257.869 122.287 257.867 122.282 257.864 122.275C257.859 122.262 257.852 122.242 257.842 122.215C257.822 122.162 257.792 122.084 257.753 121.981C257.675 121.775 257.56 121.471 257.412 121.079C257.115 120.296 256.684 119.161 256.145 117.755C255.069 114.942 253.564 111.04 251.851 106.686C248.43 97.9915 244.162 87.4454 240.817 80.165L237.183 81.835ZM251.146 67.7504L268.146 109.75L271.854 108.25L254.854 66.2496L251.146 67.7504ZM238.634 79.0338C226.224 81.3446 219.123 82 206.5 82L206.5 86C219.369 86 226.715 85.322 239.366 82.9662L238.634 79.0338ZM206.5 82C193.877 82 186.776 81.3446 174.366 79.0338L173.634 82.9662C186.285 85.322 193.631 86 206.5 86L206.5 82ZM162 16C162 12.7272 162.246 10.6795 162.872 9.36882C163.382 8.30195 164.218 7.56546 166.186 7.21192L165.478 3.27496C162.517 3.807 160.437 5.18628 159.263 7.64502C158.205 9.85998 158 12.7478 158 16H162ZM165.516 3.26849C154.706 4.99569 150.237 14.6498 146.996 20.6815L150.52 22.5747C154.044 16.0158 157.654 8.57537 166.147 7.21839L165.516 3.26849ZM169 3C167.71 3 166.537 3.0847 165.478 3.27496L166.186 7.21192C166.95 7.07456 167.876 7 169 7V3ZM169 3C167.78 3 166.62 3.09219 165.516 3.26849L166.147 7.21839C167.033 7.07685 167.982 7 169 7L169 3ZM268.464 22.2183C266.738 19.2543 264.589 15.3229 261.849 11.8589C259.1 8.38486 255.592 5.15903 251.004 3.74549L249.826 7.56818C253.316 8.64328 256.202 11.1691 258.712 14.3408C261.229 17.5224 263.202 21.1307 265.008 24.2313L268.464 22.2183ZM249.618 7.49125C250.043 7.67577 250.261 7.88407 250.411 8.11146C250.582 8.37095 250.744 8.77952 250.854 9.471C251.093 10.966 251 12.9472 251 16H255C255 13.2918 255.11 10.751 254.804 8.83952C254.642 7.82775 254.345 6.81193 253.751 5.91044C253.136 4.97684 252.283 4.28755 251.212 3.82242L249.618 7.49125ZM246 7C247.873 7 248.969 7.20936 249.618 7.49126L251.212 3.82242C249.814 3.21533 248.068 3 246 3V7ZM246 7C247.374 7 248.644 7.20379 249.826 7.56818L251.004 3.74549C249.444 3.265 247.778 3 246 3V7ZM146 36.0411C146 31.6218 148.153 26.9803 150.52 22.5747L146.996 20.6815C144.65 25.0485 142 30.5018 142 36.0411H146ZM272 33.799C272 29.6007 270.43 25.5941 268.464 22.2183L265.008 24.2313C266.779 27.2727 268 30.5712 268 33.799H272Z" fill="black"/>
<path d="M207 11L195.453 31L218.547 31L207 11ZM209 48L209 29L205 29L205 48L209 48Z" fill="black"/>
<path d="M201.117 70.6006L204.94 53.8047H207.142L208.012 55.8877L203.938 73H201.526L201.117 70.6006ZM199.627 53.8047L202.831 70.6797L202.277 73H199.535L195.369 53.8047H199.627ZM210.741 70.5874L213.905 53.8047H218.15L213.984 73H211.269L210.741 70.5874ZM208.579 53.8047L212.455 70.6928L212.007 73H209.607L205.468 55.8745L206.377 53.8047H208.579Z" fill="black"/>
</svg>
