<svg width="277" height="406" viewBox="0 0 277 406" fill="none" xmlns="http://www.w3.org/2000/svg">
<path d="M68.5 232.5C52.5 232.5 50 245.5 50 245.5L91 342.5C91 342.5 105.5 389 176.5 392.5C247.5 396 254 315.5 254 315.5V250.5C254 250.5 254 237.5 239 234.5C224 231.5 218.5 245.5 218.5 245.5C218.5 245.5 215.5 230 203.5 226.5C191.5 223 181 234.5 181 234.5C181 234.5 181 215 166.5 212.5C152 210 144.5 221 144.5 221V117C144.5 117 140 103.5 126 103.5C112 103.5 109 117 109 117V281C109 281 91.5748 230.03 68.5 232.5Z" fill="white" stroke="black" stroke-width="9" stroke-linejoin="round"/>
<path d="M6.81802 112.818C5.06066 114.575 5.06066 117.425 6.81802 119.182L35.4558 147.82C37.2132 149.577 40.0624 149.577 41.8198 147.82C43.5772 146.062 43.5772 143.213 41.8198 141.456L16.364 116L41.8198 90.5442C43.5772 88.7868 43.5772 85.9376 41.8198 84.1802C40.0624 82.4228 37.2132 82.4228 35.4558 84.1802L6.81802 112.818ZM89 111.5L10 111.5L10 120.5L89 120.5L89 111.5Z" fill="black"/>
<path d="M245.182 119.182C246.939 117.425 246.939 114.575 245.182 112.818L216.544 84.1802C214.787 82.4228 211.938 82.4228 210.18 84.1802C208.423 85.9376 208.423 88.7868 210.18 90.5442L235.636 116L210.18 141.456C208.423 143.213 208.423 146.062 210.18 147.82C211.938 149.577 214.787 149.577 216.544 147.82L245.182 119.182ZM163 120.5L242 120.5V111.5L163 111.5V120.5Z" fill="black"/>
<path d="M128.182 5.81802C126.425 4.06066 123.575 4.06066 121.818 5.81802L93.1802 34.4558C91.4228 36.2132 91.4228 39.0624 93.1802 40.8198C94.9376 42.5772 97.7868 42.5772 99.5442 40.8198L125 15.364L150.456 40.8198C152.213 42.5772 155.062 42.5772 156.82 40.8198C158.577 39.0624 158.577 36.2132 156.82 34.4558L128.182 5.81802ZM129.5 88V9H120.5V88H129.5Z" fill="black"/>
</svg>
